<?xml version="1.0" encoding="UTF-8"?>
<svg width="80px" height="71px" viewBox="0 0 80 71" version="1.1" xmlns="http://www.w3.org/2000/svg" xmlns:xlink="http://www.w3.org/1999/xlink">
    <!-- Generator: Sketch 53.2 (72643) - https://sketchapp.com -->
    <title>Logo</title>
    <desc>Created with Sketch.</desc>
    <defs>
        <linearGradient x1="2.05210055%" y1="18.9329038%" x2="81.082973%" y2="89.2860897%" id="linearGradient-1">
            <stop stop-color="#E9278B" offset="0%"></stop>
            <stop stop-color="#FF6C00" offset="50%"></stop>
            <stop stop-color="#FF7200" offset="56.69%"></stop>
            <stop stop-color="#FF8200" offset="65.45%"></stop>
            <stop stop-color="#FF9D00" offset="75.35%"></stop>
            <stop stop-color="#FFC300" offset="86.1%"></stop>
            <stop stop-color="#FFF300" offset="97.41%"></stop>
            <stop stop-color="#FFFF00" offset="100%"></stop>
        </linearGradient>
    </defs>
    <g id="Symbols" stroke="none" stroke-width="1" fill="none" fill-rule="evenodd">
        <g id="desktop_header" transform="translate(-71.000000, -33.000000)">
            <g id="Group-6">
                <g id="Logo" transform="translate(71.000000, 32.000000)">
                    <path d="M57.1331883,20.4044062 C43.025445,17.0720616 39.4678402,7.54929397 25.6545194,2.8191119 C14.6136768,-0.962537616 4.382496,2.44469116 1.11931364,9.2591487 C-3.53010784,18.9940881 7.73155158,27.7056107 8.93377666,35.3063518 C10.8352551,47.3252577 0.248313841,54.189638 4.46836922,62.6141048 C8.18545289,70.0525969 18.1835492,63.213178 32.831067,66.9074626 C44.8287826,69.9402707 54.5692593,74.0339375 66.4933693,68.5673946 C77.3870006,63.575118 80,51.2441948 80,45.9523816 C79.9877324,36.6917086 76.8472261,25.0597041 57.1331883,20.4044062 Z" id="Shape" fill="url(#linearGradient-1)"></path>
                    <path d="M45.0348578,33.9182692 C46.3622421,33.9182692 47.4330731,32.7644231 47.4330731,31.3341346 C47.4330731,29.9158654 46.3622421,28.75 45.0348578,28.75 C43.718628,28.75 42.647797,29.9038462 42.647797,31.3341346 C42.6366425,32.7644231 43.7074735,33.9182692 45.0348578,33.9182692 Z M45.0571668,35.8413462 C43.7074735,35.8413462 42.6143335,39.2908654 42.6143335,43.5456731 C42.6143335,47.8004808 43.7074735,51.25 45.0571668,51.25 C46.40686,51.25 47.5,47.8004808 47.5,43.5456731 C47.5,39.2908654 46.40686,35.8413462 45.0571668,35.8413462 Z M34.1815393,35.8293269 C30.165923,35.8293269 27.5,39.2548077 27.5,43.5336538 C27.5,47.8245192 30.165923,51.2379808 34.1815393,51.2379808 C38.1860011,51.2379808 40.8407697,47.8245192 40.8407697,43.5336538 C40.8519241,39.2427885 38.1860011,35.8293269 34.1815393,35.8293269 Z M34.1815393,47.6081731 C32.3410485,47.6081731 31.32599,45.5769231 31.32599,43.5096154 C31.32599,41.4423077 32.3410485,39.4711538 34.1815393,39.4711538 C36.0108756,39.4711538 37.0259342,41.4543269 37.0259342,43.5096154 C37.0370887,45.5769231 36.0220301,47.6081731 34.1815393,47.6081731 Z" id="Shape" fill="#FFFFFF" fill-rule="nonzero"></path>
                </g>
            </g>
        </g>
    </g>
</svg>